<?xml version="1.0" standalone="no"?>
<!DOCTYPE svg PUBLIC "-//W3C//DTD SVG 20010904//EN"
 "http://www.w3.org/TR/2001/REC-SVG-20010904/DTD/svg10.dtd">
<svg version="1.0" xmlns="http://www.w3.org/2000/svg"
 width="512.000000pt" height="512.000000pt" viewBox="0 0 512.000000 512.000000"
 preserveAspectRatio="xMidYMid meet">

<g transform="translate(0.000000,512.000000) scale(0.100000,-0.100000)"
fill="#000000" stroke="none">
<path d="M2335 4665 c-50 -49 -37 -77 109 -239 l68 -76 -125 -212 c-69 -118
-128 -224 -131 -238 -8 -33 11 -63 121 -185 231 -258 550 -483 876 -619 230
-97 558 -182 609 -159 16 7 66 83 152 229 71 121 129 220 130 221 1 2 149 -29
154 -32 1 -1 -61 -131 -138 -290 -78 -160 -140 -300 -140 -315 0 -41 53 -84
93 -76 17 3 37 12 45 19 21 16 352 694 352 719 0 11 -5 28 -10 38 -21 40 -843
946 -868 957 -36 17 -1206 283 -1243 283 -18 0 -39 -10 -54 -25z"/>
<path d="M1643 3483 c-13 -2 -32 -16 -43 -30 -20 -26 -20 -36 -20 -1524 l0
-1499 285 0 285 0 0 463 0 464 26 24 26 24 358 0 358 0 26 -24 26 -24 0 -464
0 -463 285 0 285 0 0 1193 0 1192 -92 28 c-362 110 -716 310 -1008 570 l-85
76 -345 -1 c-190 0 -355 -3 -367 -5z m1418 -592 c27 -33 25 -86 -6 -116 l-24
-25 -471 0 -471 0 -24 25 c-40 40 -30 115 18 135 12 5 232 8 490 7 l469 -2 19
-24z m-7 -470 c36 -34 36 -88 0 -122 l-26 -24 -468 0 -468 0 -26 24 c-47 44
-28 121 34 144 8 3 221 5 472 4 l456 -2 26 -24z m1 -476 c41 -40 33 -105 -16
-130 -42 -22 -916 -22 -958 0 -49 25 -57 90 -16 130 l24 25 471 0 471 0 24
-25z"/>
<path d="M543 2465 c-23 -10 -35 -24 -43 -52 -8 -27 -10 -312 -8 -985 l3 -946
24 -26 24 -26 434 0 433 0 0 1025 0 1025 -417 0 c-334 -1 -424 -4 -450 -15z
m617 -528 c53 -27 62 -96 18 -137 -20 -19 -35 -20 -225 -20 -203 0 -204 0
-228 25 -41 40 -31 104 20 133 29 17 382 16 415 -1z m-6 -411 c44 -18 63 -64
46 -106 -7 -17 -21 -35 -31 -40 -10 -6 -109 -10 -220 -10 -194 0 -204 1 -226
22 -44 41 -23 119 37 141 8 3 93 6 188 6 125 1 182 -3 206 -13z m26 -426 c28
-28 34 -63 16 -99 -24 -46 -64 -53 -268 -49 -171 3 -177 4 -202 27 -33 31 -35
85 -4 118 21 23 25 23 230 23 194 0 209 -1 228 -20z"/>
<path d="M3717 2473 c-4 -3 -7 -465 -7 -1025 l0 -1018 433 0 434 0 24 26 24
26 3 956 c2 722 -1 964 -10 986 -22 54 -38 56 -486 56 -225 0 -412 -3 -415 -7z
m662 -538 c16 -8 31 -22 35 -30 13 -34 6 -79 -16 -102 -21 -23 -25 -23 -228
-23 -201 0 -207 1 -227 23 -11 12 -24 32 -27 44 -9 28 18 81 47 93 12 5 104 9
205 9 142 1 189 -2 211 -14z m15 -424 c33 -31 35 -85 4 -118 -21 -23 -25 -23
-227 -23 -223 1 -231 3 -251 55 -8 21 -8 36 1 58 21 51 53 57 261 54 182 -2
187 -3 212 -26z m3 -413 c33 -31 31 -87 -3 -119 -25 -23 -31 -24 -202 -27
-204 -4 -244 3 -268 49 -12 24 -13 37 -5 61 20 55 28 57 250 58 197 0 206 -1
228 -22z"/>
</g>
</svg>
